<?xml version="1.0" standalone="no"?>
<!DOCTYPE svg PUBLIC "-//W3C//DTD SVG 20010904//EN"
 "http://www.w3.org/TR/2001/REC-SVG-20010904/DTD/svg10.dtd">
<svg version="1.0" xmlns="http://www.w3.org/2000/svg"
 width="1110.000000pt" height="1110.000000pt" viewBox="0 0 1110.000000 1110.000000"
 preserveAspectRatio="xMidYMid meet">
<metadata>
Created by potrace 1.14, written by Peter Selinger 2001-2017
</metadata>
<g transform="translate(0.000000,1110.000000) scale(0.100000,-0.100000)"
fill="#000000" stroke="none">
<path d="M953 8178 c1 -1608 6 -2936 9 -2953 4 -16 9 -61 13 -100 5 -62 10
-102 20 -170 14 -95 54 -304 65 -340 5 -16 11 -41 14 -55 21 -112 117 -408
195 -603 145 -363 356 -743 605 -1090 99 -139 300 -395 357 -458 13 -14 51
-56 83 -93 209 -239 596 -613 856 -826 24 -19 48 -40 54 -45 72 -67 491 -383
690 -520 242 -166 666 -431 841 -525 33 -18 65 -35 70 -40 26 -19 517 -270
529 -270 2 0 42 -17 88 -38 45 -22 91 -42 100 -45 10 -4 49 8 92 28 40 19 77
35 80 35 8 0 363 177 438 218 29 16 105 57 168 92 63 35 139 78 168 97 29 18
55 33 57 33 3 0 90 52 193 116 398 248 799 533 1117 794 83 68 155 128 161
134 6 6 37 34 69 61 163 139 412 380 623 602 183 194 434 508 604 759 81 117
128 194 264 424 20 34 185 366 206 416 9 21 26 59 37 84 39 86 128 341 180
515 19 64 73 291 85 358 19 104 26 147 31 187 3 25 8 56 10 70 2 14 7 54 11
90 4 36 9 81 12 100 3 19 7 1350 9 2958 l4 2922 -4606 0 -4605 0 3 -2922z"/>
</g>
</svg>
